<mxfile host="app.diagrams.net" modified="2022-03-14T08:26:42.060Z" agent="5.0 (Windows NT 10.0; Win64; x64) AppleWebKit/537.36 (KHTML, like Gecko) Chrome/99.0.4844.51 Safari/537.36" etag="8cqrHP6AOMhULqxbTRNC" version="16.5.6" type="github">
  <diagram id="rIAHjNlIqy6LT4Khzfyz" name="Page-1">
    <mxGraphModel dx="942" dy="752" grid="1" gridSize="10" guides="1" tooltips="1" connect="1" arrows="1" fold="1" page="1" pageScale="1" pageWidth="827" pageHeight="1169" math="0" shadow="0">
      <root>
        <mxCell id="0" />
        <mxCell id="1" parent="0" />
        <mxCell id="7JyTiwPnIaNnmdQoPTuq-11" style="edgeStyle=orthogonalEdgeStyle;rounded=0;orthogonalLoop=1;jettySize=auto;html=1;" edge="1" parent="1" source="7JyTiwPnIaNnmdQoPTuq-1" target="7JyTiwPnIaNnmdQoPTuq-4">
          <mxGeometry relative="1" as="geometry" />
        </mxCell>
        <mxCell id="7JyTiwPnIaNnmdQoPTuq-1" value="开始" style="ellipse;whiteSpace=wrap;html=1;" vertex="1" parent="1">
          <mxGeometry x="240" y="50" width="60" height="30" as="geometry" />
        </mxCell>
        <mxCell id="7JyTiwPnIaNnmdQoPTuq-2" value="结束" style="ellipse;whiteSpace=wrap;html=1;" vertex="1" parent="1">
          <mxGeometry x="240" y="560" width="60" height="30" as="geometry" />
        </mxCell>
        <mxCell id="7JyTiwPnIaNnmdQoPTuq-12" style="edgeStyle=orthogonalEdgeStyle;rounded=0;orthogonalLoop=1;jettySize=auto;html=1;entryX=0.5;entryY=0;entryDx=0;entryDy=0;" edge="1" parent="1" source="7JyTiwPnIaNnmdQoPTuq-4" target="7JyTiwPnIaNnmdQoPTuq-7">
          <mxGeometry relative="1" as="geometry" />
        </mxCell>
        <mxCell id="7JyTiwPnIaNnmdQoPTuq-23" style="edgeStyle=orthogonalEdgeStyle;rounded=0;orthogonalLoop=1;jettySize=auto;html=1;entryX=1;entryY=0.5;entryDx=0;entryDy=0;" edge="1" parent="1" source="7JyTiwPnIaNnmdQoPTuq-4" target="7JyTiwPnIaNnmdQoPTuq-18">
          <mxGeometry relative="1" as="geometry">
            <Array as="points">
              <mxPoint x="440" y="130" />
              <mxPoint x="440" y="515" />
            </Array>
          </mxGeometry>
        </mxCell>
        <mxCell id="7JyTiwPnIaNnmdQoPTuq-4" value="是否企业用户" style="rhombus;whiteSpace=wrap;html=1;" vertex="1" parent="1">
          <mxGeometry x="230" y="110" width="80" height="40" as="geometry" />
        </mxCell>
        <mxCell id="7JyTiwPnIaNnmdQoPTuq-13" style="edgeStyle=orthogonalEdgeStyle;rounded=0;orthogonalLoop=1;jettySize=auto;html=1;" edge="1" parent="1" source="7JyTiwPnIaNnmdQoPTuq-7" target="7JyTiwPnIaNnmdQoPTuq-8">
          <mxGeometry relative="1" as="geometry" />
        </mxCell>
        <mxCell id="7JyTiwPnIaNnmdQoPTuq-24" style="edgeStyle=orthogonalEdgeStyle;rounded=0;orthogonalLoop=1;jettySize=auto;html=1;entryX=1;entryY=0.5;entryDx=0;entryDy=0;" edge="1" parent="1" source="7JyTiwPnIaNnmdQoPTuq-7" target="7JyTiwPnIaNnmdQoPTuq-17">
          <mxGeometry relative="1" as="geometry">
            <Array as="points">
              <mxPoint x="410" y="190" />
              <mxPoint x="410" y="445" />
            </Array>
          </mxGeometry>
        </mxCell>
        <mxCell id="7JyTiwPnIaNnmdQoPTuq-26" value="Y" style="edgeLabel;html=1;align=center;verticalAlign=middle;resizable=0;points=[];" vertex="1" connectable="0" parent="7JyTiwPnIaNnmdQoPTuq-24">
          <mxGeometry x="-0.7079" relative="1" as="geometry">
            <mxPoint x="-5" as="offset" />
          </mxGeometry>
        </mxCell>
        <mxCell id="7JyTiwPnIaNnmdQoPTuq-31" value="N" style="edgeLabel;html=1;align=center;verticalAlign=middle;resizable=0;points=[];" vertex="1" connectable="0" parent="7JyTiwPnIaNnmdQoPTuq-24">
          <mxGeometry x="-0.3573" y="-1" relative="1" as="geometry">
            <mxPoint x="-39" y="-103" as="offset" />
          </mxGeometry>
        </mxCell>
        <mxCell id="7JyTiwPnIaNnmdQoPTuq-7" value="数据库是否有数据" style="rhombus;whiteSpace=wrap;html=1;" vertex="1" parent="1">
          <mxGeometry x="230" y="170" width="80" height="40" as="geometry" />
        </mxCell>
        <mxCell id="7JyTiwPnIaNnmdQoPTuq-14" style="edgeStyle=orthogonalEdgeStyle;rounded=0;orthogonalLoop=1;jettySize=auto;html=1;" edge="1" parent="1" source="7JyTiwPnIaNnmdQoPTuq-8" target="7JyTiwPnIaNnmdQoPTuq-9">
          <mxGeometry relative="1" as="geometry" />
        </mxCell>
        <mxCell id="7JyTiwPnIaNnmdQoPTuq-8" value="初始化注册记录，并标识不展示" style="rounded=0;whiteSpace=wrap;html=1;" vertex="1" parent="1">
          <mxGeometry x="220" y="230" width="100" height="30" as="geometry" />
        </mxCell>
        <mxCell id="7JyTiwPnIaNnmdQoPTuq-15" style="edgeStyle=orthogonalEdgeStyle;rounded=0;orthogonalLoop=1;jettySize=auto;html=1;entryX=0.5;entryY=0;entryDx=0;entryDy=0;" edge="1" parent="1" source="7JyTiwPnIaNnmdQoPTuq-9" target="7JyTiwPnIaNnmdQoPTuq-10">
          <mxGeometry relative="1" as="geometry" />
        </mxCell>
        <mxCell id="7JyTiwPnIaNnmdQoPTuq-25" style="edgeStyle=orthogonalEdgeStyle;rounded=0;orthogonalLoop=1;jettySize=auto;html=1;entryX=1;entryY=0.5;entryDx=0;entryDy=0;" edge="1" parent="1" source="7JyTiwPnIaNnmdQoPTuq-9" target="7JyTiwPnIaNnmdQoPTuq-17">
          <mxGeometry relative="1" as="geometry">
            <Array as="points">
              <mxPoint x="410" y="310" />
              <mxPoint x="410" y="445" />
            </Array>
          </mxGeometry>
        </mxCell>
        <mxCell id="7JyTiwPnIaNnmdQoPTuq-9" value="是否已首单" style="rhombus;whiteSpace=wrap;html=1;" vertex="1" parent="1">
          <mxGeometry x="230" y="290" width="80" height="40" as="geometry" />
        </mxCell>
        <mxCell id="7JyTiwPnIaNnmdQoPTuq-19" style="edgeStyle=orthogonalEdgeStyle;rounded=0;orthogonalLoop=1;jettySize=auto;html=1;entryX=0.5;entryY=0;entryDx=0;entryDy=0;" edge="1" parent="1" source="7JyTiwPnIaNnmdQoPTuq-10" target="7JyTiwPnIaNnmdQoPTuq-17">
          <mxGeometry relative="1" as="geometry" />
        </mxCell>
        <mxCell id="7JyTiwPnIaNnmdQoPTuq-10" value="初始化注册记录，并标识不展示" style="rounded=0;whiteSpace=wrap;html=1;" vertex="1" parent="1">
          <mxGeometry x="220" y="360" width="100" height="30" as="geometry" />
        </mxCell>
        <mxCell id="7JyTiwPnIaNnmdQoPTuq-20" style="edgeStyle=orthogonalEdgeStyle;rounded=0;orthogonalLoop=1;jettySize=auto;html=1;" edge="1" parent="1" source="7JyTiwPnIaNnmdQoPTuq-17" target="7JyTiwPnIaNnmdQoPTuq-18">
          <mxGeometry relative="1" as="geometry" />
        </mxCell>
        <mxCell id="7JyTiwPnIaNnmdQoPTuq-17" value="查询数据库记录" style="rounded=0;whiteSpace=wrap;html=1;" vertex="1" parent="1">
          <mxGeometry x="220" y="430" width="100" height="30" as="geometry" />
        </mxCell>
        <mxCell id="7JyTiwPnIaNnmdQoPTuq-21" style="edgeStyle=orthogonalEdgeStyle;rounded=0;orthogonalLoop=1;jettySize=auto;html=1;entryX=0.5;entryY=0;entryDx=0;entryDy=0;" edge="1" parent="1" source="7JyTiwPnIaNnmdQoPTuq-18" target="7JyTiwPnIaNnmdQoPTuq-2">
          <mxGeometry relative="1" as="geometry" />
        </mxCell>
        <mxCell id="7JyTiwPnIaNnmdQoPTuq-18" value="组装数据" style="rounded=0;whiteSpace=wrap;html=1;" vertex="1" parent="1">
          <mxGeometry x="220" y="500" width="100" height="30" as="geometry" />
        </mxCell>
        <mxCell id="7JyTiwPnIaNnmdQoPTuq-27" value="Y" style="edgeLabel;html=1;align=center;verticalAlign=middle;resizable=0;points=[];" vertex="1" connectable="0" parent="1">
          <mxGeometry x="280" y="40" as="geometry">
            <mxPoint x="-18" y="123" as="offset" />
          </mxGeometry>
        </mxCell>
        <mxCell id="7JyTiwPnIaNnmdQoPTuq-28" value="Y" style="edgeLabel;html=1;align=center;verticalAlign=middle;resizable=0;points=[];" vertex="1" connectable="0" parent="1">
          <mxGeometry x="395" y="210" as="geometry">
            <mxPoint x="-136" y="137" as="offset" />
          </mxGeometry>
        </mxCell>
        <mxCell id="7JyTiwPnIaNnmdQoPTuq-32" value="N" style="edgeLabel;html=1;align=center;verticalAlign=middle;resizable=0;points=[];" vertex="1" connectable="0" parent="1">
          <mxGeometry x="370" y="130" as="geometry">
            <mxPoint x="-3" y="175" as="offset" />
          </mxGeometry>
        </mxCell>
        <mxCell id="7JyTiwPnIaNnmdQoPTuq-33" value="N" style="edgeLabel;html=1;align=center;verticalAlign=middle;resizable=0;points=[];" vertex="1" connectable="0" parent="1">
          <mxGeometry x="370" y="140" as="geometry">
            <mxPoint x="-109" y="75" as="offset" />
          </mxGeometry>
        </mxCell>
      </root>
    </mxGraphModel>
  </diagram>
</mxfile>
